<svg width="257" height="257" viewBox="0 0 257 257" fill="none" xmlns="http://www.w3.org/2000/svg">
<path d="M89.712 207.512C83.3973 207.512 78.5333 204.867 75.12 199.576C71.7067 194.285 70 186.52 70 176.28C70 166.552 71.3653 156.824 74.096 147.096C76.8267 137.197 80.5813 127.811 85.36 118.936C90.1387 110.061 95.5147 102.211 101.488 95.384C107.632 88.5573 114.032 83.1813 120.688 79.256C127.515 75.16 134.256 73.112 140.912 73.112C145.52 73.112 149.531 74.3067 152.944 76.696C155.333 78.232 156.784 77.72 157.296 75.16L165.488 41.368C166.341 38.296 166.341 36.1627 165.488 34.968C164.805 33.7733 163.269 33.0907 160.88 32.92L153.2 32.152C150.64 31.9813 149.531 30.872 149.872 28.824C150.213 27.288 151.408 26.3493 153.456 26.008C159.6 24.984 165.061 23.7893 169.84 22.424C174.619 20.888 178.459 18.9253 181.36 16.536C182.725 15.512 184.005 15 185.2 15C187.248 15 188.016 16.28 187.504 18.84L151.152 176.28C148.592 187.373 150.299 192.92 156.272 192.92C160.197 192.92 163.696 190.275 166.768 184.984C170.011 179.693 173.253 171.501 176.496 160.408C177.008 158.531 178.117 157.592 179.824 157.592C181.019 157.592 181.787 158.104 182.128 159.128C182.469 160.152 182.469 161.347 182.128 162.712C178.885 178.755 174.363 190.275 168.56 197.272C162.928 204.099 156.272 207.512 148.592 207.512C141.936 207.512 137.157 204.696 134.256 199.064C131.525 193.432 131.269 185.752 133.488 176.024L136.304 164.248C136.645 163.053 136.389 162.371 135.536 162.2C134.853 162.029 134.256 162.456 133.744 163.48C125.552 179.523 117.787 190.872 110.448 197.528C103.109 204.184 96.1973 207.512 89.712 207.512ZM95.856 194.456C99.952 194.456 104.475 191.981 109.424 187.032C114.373 182.083 119.237 175.683 124.016 167.832C128.965 159.981 133.488 151.533 137.584 142.488C141.68 133.443 144.923 124.739 147.312 116.376C149.872 108.013 151.152 100.931 151.152 95.128C151.152 84.7173 147.483 79.512 140.144 79.512C135.707 79.512 131.013 81.56 126.064 85.656C121.115 89.5813 116.336 94.9573 111.728 101.784C107.291 108.611 103.195 116.376 99.44 125.08C95.856 133.613 92.9547 142.573 90.736 151.96C88.5173 161.176 87.408 170.221 87.408 179.096C87.408 185.069 88.176 189.165 89.712 191.384C91.4187 193.432 93.4667 194.456 95.856 194.456Z" fill="white"/>
</svg>
